<svg xmlns="http://www.w3.org/2000/svg" xmlns:xlink="http://www.w3.org/1999/xlink" viewBox="0 0 166.218 40.91"><defs><linearGradient id="New_Gradient_Swatch_1" x1="5.991" y1="34.919" x2="34.919" y2="5.991" gradientUnits="userSpaceOnUse"><stop offset="0" stop-color="#fcb627"/><stop offset="1" stop-color="#ffcd22"/></linearGradient></defs><g id="Camada_2" data-name="Camada 2"><g id="Camada_1-2" data-name="Camada 1"><g id="Mostly_Sunny" data-name="Mostly Sunny"><circle cx="20.455" cy="20.455" r="20.455" fill="url(#New_Gradient_Swatch_1)"/></g><path d="M14.061,28.365,10.027,13.82h2.308l2.834,11.264H15.3L18.251,13.82h2.287l2.947,11.271h.136L26.447,13.82h2.316L24.721,28.365H22.513L19.451,17.47h-.113l-3.061,10.9Z" fill="#fff"/><path d="M32.373,28.365V13.82h9.119v1.889H34.567V20.14h6.449v1.883H34.567v4.453h7.01v1.889Z" fill="#fff"/><path d="M47.261,28.365h-2.33L50.166,13.82H52.7l5.235,14.545h-2.33l-4.112-11.9H51.38Zm.391-5.7h7.556v1.846H47.652Z"/><path d="M59.181,15.709V13.82H70.438v1.889H65.9V28.365H63.712V15.709Z"/><path d="M74.516,28.365V13.82h2.195v6.32h7.251V13.82h2.2V28.365h-2.2V22.023H76.711v6.342Z"/><path d="M90.96,28.365V13.82h9.119v1.889H93.154V20.14H99.6v1.883h-6.45v4.453h7.011v1.889Z"/><path d="M104.619,28.365V13.82H109.8a6.051,6.051,0,0,1,2.809.582,3.866,3.866,0,0,1,1.672,1.608,4.916,4.916,0,0,1,.554,2.369,4.791,4.791,0,0,1-.557,2.347,3.8,3.8,0,0,1-1.676,1.574,6.245,6.245,0,0,1-2.809.561h-3.928v-1.89H109.6a4.211,4.211,0,0,0,1.736-.3,2.017,2.017,0,0,0,.984-.887,2.918,2.918,0,0,0,.313-1.4,3.051,3.051,0,0,0-.316-1.428,2.1,2.1,0,0,0-.988-.926,4.064,4.064,0,0,0-1.758-.324h-2.755V28.365ZM111.8,21.8l3.594,6.563h-2.5L109.371,21.8Z"/><path d="M127.244,28.365h-2.33l5.235-14.545h2.535l5.235,14.545h-2.33l-4.112-11.9h-.114Zm.39-5.7h7.557v1.846h-7.557Z"/><path d="M141.614,28.365V13.82H146.8a5.764,5.764,0,0,1,2.813.617,4.025,4.025,0,0,1,1.669,1.687,5.5,5.5,0,0,1,0,4.816,4.069,4.069,0,0,1-1.677,1.69,5.729,5.729,0,0,1-2.809.621h-3.565V21.39h3.366a3.565,3.565,0,0,0,1.741-.372,2.311,2.311,0,0,0,.98-1.02,3.333,3.333,0,0,0,.312-1.469,3.3,3.3,0,0,0-.312-1.464,2.244,2.244,0,0,0-.984-1,3.709,3.709,0,0,0-1.765-.363h-2.756V28.365Z"/><path d="M156,28.365V13.82h5.184a5.764,5.764,0,0,1,2.813.617,4.025,4.025,0,0,1,1.669,1.687,5.492,5.492,0,0,1,0,4.816,4.06,4.06,0,0,1-1.676,1.69,5.732,5.732,0,0,1-2.809.621H157.61V21.39h3.366a3.559,3.559,0,0,0,1.74-.372A2.3,2.3,0,0,0,163.7,20a3.319,3.319,0,0,0,.313-1.469,3.282,3.282,0,0,0-.313-1.464,2.241,2.241,0,0,0-.983-1,3.709,3.709,0,0,0-1.765-.363h-2.756V28.365Z"/></g></g></svg>